<mxfile host="app.diagrams.net" modified="2022-03-22T16:49:19.727Z" agent="5.0 (Macintosh; Intel Mac OS X 10_15_7) AppleWebKit/537.36 (KHTML, like Gecko) Chrome/99.0.4844.83 Safari/537.36" etag="cWvWg8VmyRZUdTpNDqVe" version="17.1.3" type="github">
  <diagram id="CnFWvs2xvnkxJJfXh5ey" name="Page-1">
    <mxGraphModel dx="1426" dy="769" grid="1" gridSize="10" guides="1" tooltips="1" connect="1" arrows="1" fold="1" page="1" pageScale="1" pageWidth="827" pageHeight="1169" math="0" shadow="0">
      <root>
        <mxCell id="0" />
        <mxCell id="1" parent="0" />
        <mxCell id="RFDC9iJPh2t_88Fd7q1u-4" value="AED 小搜" style="rounded=1;arcSize=10;dashed=1;strokeColor=#F59D56;fillColor=none;gradientColor=none;dashPattern=8 4;strokeWidth=2;verticalAlign=top;fontSize=16;" vertex="1" parent="1">
          <mxGeometry x="120" y="215" width="530" height="350" as="geometry" />
        </mxCell>
        <mxCell id="RFDC9iJPh2t_88Fd7q1u-5" style="edgeStyle=orthogonalEdgeStyle;rounded=0;orthogonalLoop=1;jettySize=auto;html=1;entryX=0;entryY=0.25;entryDx=0;entryDy=0;fontSize=16;" edge="1" parent="1" source="RFDC9iJPh2t_88Fd7q1u-1" target="RFDC9iJPh2t_88Fd7q1u-2">
          <mxGeometry relative="1" as="geometry" />
        </mxCell>
        <mxCell id="RFDC9iJPh2t_88Fd7q1u-1" value="用户" style="shape=umlActor;verticalLabelPosition=bottom;verticalAlign=top;html=1;outlineConnect=0;" vertex="1" parent="1">
          <mxGeometry x="50" y="260" width="30" height="60" as="geometry" />
        </mxCell>
        <mxCell id="RFDC9iJPh2t_88Fd7q1u-23" style="edgeStyle=orthogonalEdgeStyle;rounded=0;orthogonalLoop=1;jettySize=auto;html=1;entryX=0;entryY=0.5;entryDx=0;entryDy=0;fontSize=16;" edge="1" parent="1" source="RFDC9iJPh2t_88Fd7q1u-2" target="RFDC9iJPh2t_88Fd7q1u-22">
          <mxGeometry relative="1" as="geometry" />
        </mxCell>
        <mxCell id="RFDC9iJPh2t_88Fd7q1u-2" value="AED 小程序" style="rounded=0;whiteSpace=wrap;html=1;" vertex="1" parent="1">
          <mxGeometry x="200" y="267" width="120" height="100" as="geometry" />
        </mxCell>
        <mxCell id="RFDC9iJPh2t_88Fd7q1u-28" style="edgeStyle=orthogonalEdgeStyle;rounded=0;orthogonalLoop=1;jettySize=auto;html=1;entryX=0.991;entryY=0.383;entryDx=0;entryDy=0;entryPerimeter=0;fontSize=16;" edge="1" parent="1" source="RFDC9iJPh2t_88Fd7q1u-3" target="RFDC9iJPh2t_88Fd7q1u-22">
          <mxGeometry relative="1" as="geometry">
            <Array as="points">
              <mxPoint x="551" y="368" />
              <mxPoint x="550" y="310" />
            </Array>
          </mxGeometry>
        </mxCell>
        <mxCell id="RFDC9iJPh2t_88Fd7q1u-3" value="AED 后台管理" style="rounded=0;whiteSpace=wrap;html=1;" vertex="1" parent="1">
          <mxGeometry x="510" y="388" width="81" height="60" as="geometry" />
        </mxCell>
        <mxCell id="RFDC9iJPh2t_88Fd7q1u-7" style="edgeStyle=orthogonalEdgeStyle;rounded=0;orthogonalLoop=1;jettySize=auto;html=1;fontSize=16;" edge="1" parent="1" source="RFDC9iJPh2t_88Fd7q1u-6" target="RFDC9iJPh2t_88Fd7q1u-2">
          <mxGeometry relative="1" as="geometry" />
        </mxCell>
        <mxCell id="RFDC9iJPh2t_88Fd7q1u-20" value="上报数据" style="edgeLabel;html=1;align=center;verticalAlign=middle;resizable=0;points=[];fontSize=16;" vertex="1" connectable="0" parent="RFDC9iJPh2t_88Fd7q1u-7">
          <mxGeometry x="0.0704" relative="1" as="geometry">
            <mxPoint as="offset" />
          </mxGeometry>
        </mxCell>
        <mxCell id="RFDC9iJPh2t_88Fd7q1u-6" value="志愿者" style="shape=umlActor;verticalLabelPosition=bottom;verticalAlign=top;html=1;outlineConnect=0;" vertex="1" parent="1">
          <mxGeometry x="30" y="360" width="30" height="60" as="geometry" />
        </mxCell>
        <mxCell id="RFDC9iJPh2t_88Fd7q1u-8" value="" style="outlineConnect=0;dashed=0;verticalLabelPosition=bottom;verticalAlign=top;align=center;html=1;shape=mxgraph.aws3.mysql_db_instance_2;fillColor=#2E73B8;gradientColor=none;fontSize=16;" vertex="1" parent="1">
          <mxGeometry x="415" y="600" width="60" height="63" as="geometry" />
        </mxCell>
        <mxCell id="RFDC9iJPh2t_88Fd7q1u-27" style="edgeStyle=orthogonalEdgeStyle;rounded=0;orthogonalLoop=1;jettySize=auto;html=1;fontSize=16;exitX=0.5;exitY=1;exitDx=0;exitDy=0;exitPerimeter=0;entryX=0;entryY=0.5;entryDx=0;entryDy=0;entryPerimeter=0;" edge="1" parent="1" source="RFDC9iJPh2t_88Fd7q1u-10" target="RFDC9iJPh2t_88Fd7q1u-8">
          <mxGeometry relative="1" as="geometry" />
        </mxCell>
        <mxCell id="RFDC9iJPh2t_88Fd7q1u-10" value="" style="outlineConnect=0;dashed=0;verticalLabelPosition=bottom;verticalAlign=top;align=center;html=1;shape=mxgraph.aws3.cache_node;fillColor=#2E73B8;gradientColor=none;fontSize=16;" vertex="1" parent="1">
          <mxGeometry x="355" y="440" width="60" height="63" as="geometry" />
        </mxCell>
        <mxCell id="RFDC9iJPh2t_88Fd7q1u-18" style="edgeStyle=orthogonalEdgeStyle;rounded=0;orthogonalLoop=1;jettySize=auto;html=1;entryX=1;entryY=0.5;entryDx=0;entryDy=0;fontSize=16;" edge="1" parent="1" source="RFDC9iJPh2t_88Fd7q1u-16" target="RFDC9iJPh2t_88Fd7q1u-3">
          <mxGeometry relative="1" as="geometry" />
        </mxCell>
        <mxCell id="RFDC9iJPh2t_88Fd7q1u-19" value="审核" style="edgeLabel;html=1;align=center;verticalAlign=middle;resizable=0;points=[];fontSize=16;" vertex="1" connectable="0" parent="RFDC9iJPh2t_88Fd7q1u-18">
          <mxGeometry x="0.1571" y="-1" relative="1" as="geometry">
            <mxPoint as="offset" />
          </mxGeometry>
        </mxCell>
        <mxCell id="RFDC9iJPh2t_88Fd7q1u-16" value="管理员" style="shape=umlActor;verticalLabelPosition=bottom;verticalAlign=top;html=1;outlineConnect=0;" vertex="1" parent="1">
          <mxGeometry x="710" y="388" width="30" height="60" as="geometry" />
        </mxCell>
        <mxCell id="RFDC9iJPh2t_88Fd7q1u-25" style="edgeStyle=orthogonalEdgeStyle;rounded=0;orthogonalLoop=1;jettySize=auto;html=1;exitX=0.091;exitY=1.033;exitDx=0;exitDy=0;fontSize=16;exitPerimeter=0;" edge="1" parent="1" source="RFDC9iJPh2t_88Fd7q1u-22" target="RFDC9iJPh2t_88Fd7q1u-10">
          <mxGeometry relative="1" as="geometry">
            <mxPoint x="419.5" y="347" as="sourcePoint" />
            <mxPoint x="416" y="400" as="targetPoint" />
          </mxGeometry>
        </mxCell>
        <mxCell id="RFDC9iJPh2t_88Fd7q1u-30" style="edgeStyle=orthogonalEdgeStyle;rounded=0;orthogonalLoop=1;jettySize=auto;html=1;exitX=0.5;exitY=1;exitDx=0;exitDy=0;fontSize=16;" edge="1" parent="1" source="RFDC9iJPh2t_88Fd7q1u-22" target="RFDC9iJPh2t_88Fd7q1u-8">
          <mxGeometry relative="1" as="geometry" />
        </mxCell>
        <mxCell id="RFDC9iJPh2t_88Fd7q1u-22" value="AED 后端" style="rounded=0;whiteSpace=wrap;html=1;" vertex="1" parent="1">
          <mxGeometry x="390" y="287" width="110" height="60" as="geometry" />
        </mxCell>
      </root>
    </mxGraphModel>
  </diagram>
</mxfile>
